<?xml version="1.0" encoding="utf-8"?>
<!-- Generator: Adobe Illustrator 16.0.0, SVG Export Plug-In . SVG Version: 6.00 Build 0)  -->
<!DOCTYPE svg PUBLIC "-//W3C//DTD SVG 1.1//EN" "http://www.w3.org/Graphics/SVG/1.1/DTD/svg11.dtd">
<svg version="1.1" id="Layer_1" xmlns="http://www.w3.org/2000/svg" xmlns:xlink="http://www.w3.org/1999/xlink" x="0px" y="0px"
	 width="40px" height="80px" viewBox="0 0 40 80" enable-background="new 0 0 40 80" xml:space="preserve">
<path fill="#4C6BAC" d="M39.74,20c0,8.25-5.061,15.32-12.25,18.26l-0.11-13.25h5l1.25-6.25h-6.25v-4.13c0-1.75,0.63-3,3.13-3h3.25
	V6.25c-0.5,0-2.38-0.25-4.63-0.25c-4.62,0-7.87,2.63-7.87,7.75v5.01h-5.01v6.25h5.01V39.69c-0.42,0.04-0.84,0.05-1.26,0.05
	C9.1,39.74,0.26,30.9,0.26,20C0.26,9.1,9.1,0.26,20,0.26C30.9,0.26,39.74,9.1,39.74,20z"/>
<path fill="#6281C1" d="M39.74,60c0,8.25-5.061,15.32-12.25,18.26l-0.11-13.25h5l1.25-6.25h-6.25v-4.129c0-1.75,0.63-3,3.13-3h3.25
	V46.25c-0.5,0-2.38-0.25-4.63-0.25c-4.62,0-7.87,2.631-7.87,7.75v5.01h-5.01v6.25h5.01v14.682C20.84,79.73,20.42,79.74,20,79.74
	C9.1,79.74,0.26,70.9,0.26,60C0.26,49.101,9.1,40.26,20,40.26C30.9,40.26,39.74,49.101,39.74,60z"/>
</svg>
