<?xml version="1.0" encoding="utf-8"?>
<!-- Generator: Adobe Illustrator 16.0.0, SVG Export Plug-In . SVG Version: 6.00 Build 0)  -->
<!DOCTYPE svg PUBLIC "-//W3C//DTD SVG 1.1//EN" "http://www.w3.org/Graphics/SVG/1.1/DTD/svg11.dtd">
<svg version="1.1" id="Layer_1" xmlns="http://www.w3.org/2000/svg" xmlns:xlink="http://www.w3.org/1999/xlink" x="0px" y="0px"
	 width="40px" height="80px" viewBox="0 0 40 80" enable-background="new 0 0 40 80" xml:space="preserve">
<circle fill="#454545" cx="67.1" cy="35.968" r="19.738"/>
<path fill="#4BBEED" d="M20,40.26c-10.9,0-19.74,8.84-19.74,19.74c0,10.9,8.84,19.74,19.74,19.74C30.9,79.74,39.74,70.9,39.74,60
	C39.74,49.101,30.9,40.26,20,40.26z M30.789,54.541v0.67c0,7.309-5.539,15.709-15.7,15.709c-3.11,0-6.05-0.93-8.57-2.439
	c0.42,0.09,0.93,0.09,1.35,0.09c2.6,0,5.03-0.84,6.88-2.359c-2.35-0.08-4.45-1.67-5.12-3.861c0.34,0.092,0.67,0.092,1.01,0.092
	c0.5,0,0.92-0.092,1.42-0.172c-2.51-0.51-4.45-2.689-4.45-5.379v-0.08c0.76,0.42,1.6,0.67,2.52,0.67
	c-1.42-1.01-2.43-2.689-2.43-4.62c0-1.01,0.25-1.93,0.75-2.771c2.78,3.361,6.81,5.541,11.42,5.801c-0.08-0.42-0.16-0.84-0.16-1.26
	c0-3.11,2.521-5.551,5.541-5.551c1.51,0,2.939,0.68,3.949,1.771c1.26-0.25,2.43-0.67,3.52-1.351c-0.42,1.26-1.26,2.351-2.43,3.03
	c1.17-0.09,2.18-0.42,3.191-0.84C32.719,52.78,31.799,53.701,30.789,54.541z"/>
<path fill="#36A3D0" d="M20,0.26C9.1,0.26,0.26,9.1,0.26,20C0.26,30.9,9.1,39.74,20,39.74c10.9,0,19.74-8.84,19.74-19.74
	C39.74,9.1,30.9,0.26,20,0.26z M30.789,14.541v0.67c0,7.309-5.539,15.709-15.699,15.709c-3.11,0-6.05-0.93-8.57-2.439
	c0.42,0.09,0.93,0.09,1.35,0.09c2.6,0,5.03-0.84,6.88-2.359c-2.35-0.08-4.45-1.67-5.12-3.861c0.34,0.092,0.67,0.092,1.01,0.092
	c0.5,0,0.92-0.092,1.42-0.172c-2.51-0.51-4.45-2.689-4.45-5.379v-0.08c0.76,0.42,1.6,0.67,2.52,0.67
	c-1.42-1.01-2.43-2.689-2.43-4.621c0-1.009,0.25-1.929,0.75-2.77c2.78,3.362,6.81,5.542,11.42,5.801c-0.08-0.42-0.16-0.84-0.16-1.26
	c0-3.111,2.521-5.551,5.54-5.551c1.51,0,2.939,0.68,3.949,1.771c1.26-0.25,2.43-0.67,3.52-1.351c-0.42,1.26-1.26,2.351-2.43,3.03
	c1.17-0.09,2.18-0.42,3.191-0.839C32.719,12.779,31.799,13.701,30.789,14.541z"/>
</svg>
