<?xml version="1.0" encoding="utf-8"?>
<!-- Generator: Adobe Illustrator 16.0.0, SVG Export Plug-In . SVG Version: 6.00 Build 0)  -->
<!DOCTYPE svg PUBLIC "-//W3C//DTD SVG 1.1//EN" "http://www.w3.org/Graphics/SVG/1.1/DTD/svg11.dtd">
<svg version="1.1" id="Layer_1" xmlns="http://www.w3.org/2000/svg" xmlns:xlink="http://www.w3.org/1999/xlink" x="0px" y="0px"
	 width="100px" height="200px" viewBox="0 0 100 200" enable-background="new 0 0 100 200" xml:space="preserve">
<path fill="#35495E" d="M50,29.805L37.645,41.446h7.841v12.118h9.03V41.446h7.84L50,29.805z M72.096,57.128l-7.604-4.989H59.74
	l8.08,6.178h-8.316c-0.236,0-0.477,0.236-0.477,0.236l-1.898,5.466H42.873l-1.9-5.228c-0.237-0.238-0.237-0.475-0.476-0.475h-8.554
	l8.078-6.178h-4.752l-7.602,4.989c-0.95,0.712-1.664,2.376-1.426,3.563l1.426,7.364c0.238,1.188,1.662,2.14,2.85,2.14h38.727
	c1.428,0,2.615-0.951,3.09-2.14l1.426-7.364C73.996,59.504,73.283,57.84,72.096,57.128z"/>
<path fill="#488FCC" d="M50,129.805l-12.355,11.643h7.841v12.117h9.03v-12.117h7.84L50,129.805z M72.096,157.129l-7.604-4.99H59.74
	l8.08,6.178h-8.316c-0.236,0-0.477,0.236-0.477,0.236l-1.898,5.467H42.873l-1.9-5.229c-0.237-0.238-0.237-0.475-0.476-0.475h-8.554
	l8.078-6.178h-4.752l-7.602,4.99c-0.95,0.711-1.664,2.375-1.426,3.563l1.426,7.365c0.238,1.188,1.662,2.139,2.85,2.139h38.727
	c1.428,0,2.615-0.951,3.09-2.139l1.426-7.365C73.996,159.504,73.283,157.84,72.096,157.129z"/>
</svg>
