<?xml version="1.0" encoding="utf-8"?>
<!-- Generator: Adobe Illustrator 16.0.0, SVG Export Plug-In . SVG Version: 6.00 Build 0)  -->
<!DOCTYPE svg PUBLIC "-//W3C//DTD SVG 1.1//EN" "http://www.w3.org/Graphics/SVG/1.1/DTD/svg11.dtd">
<svg version="1.1" id="Layer_1" xmlns="http://www.w3.org/2000/svg" xmlns:xlink="http://www.w3.org/1999/xlink" x="0px" y="0px"
	 width="45px" height="45px" viewBox="0 0 45 45" enable-background="new 0 0 45 45" xml:space="preserve">
<rect x="0.499" y="0.499" fill="none" stroke="#3E3F40" stroke-miterlimit="10" width="44.002" height="44.003"/>
<path fill="none" d="M2.771,2.771h40.457v40.457H2.771V2.771z"/>
<path fill="none" d="M27,17.67c0,2.21-1.79,4-4,4s-4-1.79-4-4c0-2.22,1.79-4.01,4-4.01S27,15.45,27,17.67z"/>
<path fill="none" d="M31,28.31c-1.72,2.591-4.67,4.301-8,4.301s-6.28-1.71-8-4.301c0.04-2.659,5.33-4.109,8-4.109
	C25.65,24.2,30.96,25.65,31,28.31z"/>
<path fill="#31BAEC" d="M27,17.67c0,2.21-1.79,4-4,4s-4-1.79-4-4c0-2.22,1.79-4.01,4-4.01S27,15.45,27,17.67z"/>
<path fill="#31BAEC" d="M31,28.31c-1.72,2.591-4.67,4.301-8,4.301s-6.28-1.71-8-4.301c0.04-2.659,5.33-4.109,8-4.109
	C25.65,24.2,30.96,25.65,31,28.31z"/>
</svg>
