<?xml version="1.0" encoding="utf-8"?>
<!-- Generator: Adobe Illustrator 16.0.0, SVG Export Plug-In . SVG Version: 6.00 Build 0)  -->
<!DOCTYPE svg PUBLIC "-//W3C//DTD SVG 1.1//EN" "http://www.w3.org/Graphics/SVG/1.1/DTD/svg11.dtd">
<svg version="1.1" id="Layer_1" xmlns="http://www.w3.org/2000/svg" xmlns:xlink="http://www.w3.org/1999/xlink" x="0px" y="0px"
	 width="200px" height="200px" viewBox="0 0 200 200" enable-background="new 0 0 200 200" xml:space="preserve">
<path fill="#57A0D7" d="M0,0v200h200V0H0z M104,163.66c-21.06,0-39.68-10.781-50.55-27.121c0.25-16.77,33.7-25.949,50.55-25.949
	c16.77,0,50.3,9.18,50.55,25.949C143.68,152.879,125.06,163.66,104,163.66z M104,44.02c13.99,0,25.28,11.29,25.28,25.28
	c0,13.99-11.29,25.271-25.28,25.271S78.72,83.29,78.72,69.3C78.72,55.31,90.01,44.02,104,44.02z"/>
<polygon opacity="0.1" fill="#EEEEEE" points="199.999,200 0.001,200 199.999,0.002 "/>
</svg>
