<?xml version="1.0" encoding="utf-8"?>
<!-- Generator: Adobe Illustrator 16.0.0, SVG Export Plug-In . SVG Version: 6.00 Build 0)  -->
<!DOCTYPE svg PUBLIC "-//W3C//DTD SVG 1.1//EN" "http://www.w3.org/Graphics/SVG/1.1/DTD/svg11.dtd">
<svg version="1.1" id="Layer_1" xmlns="http://www.w3.org/2000/svg" xmlns:xlink="http://www.w3.org/1999/xlink" x="0px" y="0px"
	 width="40px" height="80px" viewBox="0 0 40 80" enable-background="new 0 0 40 80" xml:space="preserve">
<circle fill="#454545" cx="67.1" cy="35.968" r="19.738"/>
<polygon fill="#C94237" points="16.7,15.2 25.3,19.7 16.7,24.2 "/>
<path fill="#C94237" d="M20,0.259C9.1,0.259,0.26,9.1,0.26,20C0.26,30.9,9.1,39.74,20,39.74c10.9,0,19.74-8.84,19.74-19.74
	C39.74,9.1,30.9,0.259,20,0.259z M35.7,26.4c0,0-0.3,2.199-1.3,3.199C33.2,30.9,31.8,30.9,31.2,31c-4.5,0.3-11.2,0.3-11.2,0.3
	S11.7,31.2,9.1,31c-0.7-0.2-2.3-0.1-3.5-1.4c-1-1-1.3-3.199-1.3-3.199S4,23.799,4,21.2v-2.4c0-2.6,0.3-5.2,0.3-5.2s0.3-2.2,1.3-3.2
	C6.8,9.1,8.2,9.1,8.8,9c2.25-0.15,5.05-0.22,7.29-0.26C18.32,8.7,20,8.7,20,8.7s6.7,0,11.2,0.3c0.6,0.1,2,0.1,3.2,1.4
	c1,1,1.3,3.2,1.3,3.2s0.3,2.6,0.3,5.2v2.4C36,23.799,35.7,26.4,35.7,26.4z"/>
<polygon fill="#F04E41" points="16.7,55.201 25.3,59.701 16.7,64.201 "/>
<path fill="#F04E41" d="M20,40.261c-10.9,0-19.74,8.841-19.74,19.74C0.26,70.902,9.1,79.742,20,79.742
	c10.9,0,19.74-8.84,19.74-19.741C39.74,49.102,30.9,40.261,20,40.261z M35.7,66.402c0,0-0.3,2.199-1.3,3.199
	c-1.2,1.301-2.601,1.301-3.2,1.4C26.7,71.301,20,71.301,20,71.301s-8.3-0.1-10.9-0.299c-0.7-0.201-2.3-0.1-3.5-1.4
	c-1-1-1.3-3.199-1.3-3.199S4,63.801,4,61.201v-2.4c0-2.6,0.3-5.199,0.3-5.199S4.6,51.4,5.6,50.4c1.2-1.299,2.6-1.299,3.2-1.399
	c2.25-0.149,5.05-0.22,7.29-0.26c2.23-0.04,3.91-0.04,3.91-0.04s6.7,0,11.2,0.3c0.6,0.101,2,0.101,3.2,1.399
	c1,1,1.3,3.201,1.3,3.201s0.3,2.6,0.3,5.199v2.4C36,63.801,35.7,66.402,35.7,66.402z"/>
</svg>
