<?xml version="1.0" encoding="utf-8"?>
<!-- Generator: Adobe Illustrator 18.0.0, SVG Export Plug-In . SVG Version: 6.00 Build 0)  -->
<!DOCTYPE svg PUBLIC "-//W3C//DTD SVG 1.1//EN" "http://www.w3.org/Graphics/SVG/1.1/DTD/svg11.dtd">
<svg version="1.1" id="Layer_1" xmlns="http://www.w3.org/2000/svg" xmlns:xlink="http://www.w3.org/1999/xlink" x="0px" y="0px"
	 viewBox="0 0 146 146" enable-background="new 0 0 146 146" xml:space="preserve">
<path fill="none" stroke="#3D3F3F" stroke-miterlimit="10" d="M106.5,105h-66c-7.7,0-13.9-6.2-13.9-13.9V54.8
	c0-7.7,6.2-13.9,13.9-13.9h66c7.7,0,13.9,6.2,13.9,13.9v36.3C120.4,98.8,114.2,105,106.5,105z"/>
<path fill="none" stroke="#3D3F3F" stroke-miterlimit="10" d="M106.5,105h-66c-7.7,0-13.9-6.2-13.9-13.9v-22
	c0-7.7,6.2-13.9,13.9-13.9h66c7.7,0,13.9,6.2,13.9,13.9v22C120.4,98.8,114.2,105,106.5,105z"/>
<polygon fill="none" stroke="#3D3F3F" stroke-miterlimit="10" points="50.8,55.2 40.4,55.2 47.4,40.9 57.8,40.9 "/>
<polygon fill="none" stroke="#3D3F3F" stroke-miterlimit="10" points="65,55.2 54.6,55.2 61.6,40.9 72,40.9 "/>
<polygon fill="none" stroke="#3D3F3F" stroke-miterlimit="10" points="79.4,55.2 69,55.2 76,40.9 86.4,40.9 "/>
<polygon fill="none" stroke="#3D3F3F" stroke-miterlimit="10" points="93.4,55.2 83.1,55.2 90.1,40.9 100.4,40.9 "/>
<line fill="none" stroke="#3D3F3F" stroke-miterlimit="10" x1="96.9" y1="55.2" x2="103.9" y2="40.9"/>
<path fill="#3D3F3F" d="M70.7,68.3L85,76.6c2.9,1.7,2.9,5.9,0,7.6l-14.3,8.3c-2.9,1.7-6.6-0.4-6.6-3.8V72.1
	C64.1,68.7,67.8,66.6,70.7,68.3z"/>
<path fill="#3D3F3F" d="M38,55.4v49.7c-7-0.6-12-6.6-12-13.9v-22C26,62,31,56,38,55.4z"/>
</svg>
