<?xml version="1.0" encoding="utf-8"?>
<!-- Generator: Adobe Illustrator 18.0.0, SVG Export Plug-In . SVG Version: 6.00 Build 0)  -->
<!DOCTYPE svg PUBLIC "-//W3C//DTD SVG 1.1//EN" "http://www.w3.org/Graphics/SVG/1.1/DTD/svg11.dtd">
<svg version="1.1" id="Layer_1" xmlns="http://www.w3.org/2000/svg" xmlns:xlink="http://www.w3.org/1999/xlink" x="0px" y="0px"
	 viewBox="0 0 146 146" enable-background="new 0 0 146 146" xml:space="preserve">
<g>
	<g>
		<path fill-rule="evenodd" clip-rule="evenodd" fill="#2B2B2B" d="M75.6,65.7l-5.9-5.9c-1.2-1.2-2.8-1.3-3.9-0.1L60,65.6
			c-1.2,1.2-1.3,3-0.1,4.2l5.9,5.9c1.2,1.2,3,1,4.1-0.1l5.9-5.9C76.9,68.4,76.8,66.9,75.6,65.7z M68.7,72.1
			c-0.5,0.5-1.3,0.6-1.8,0.1l-3.7-3.7c-0.5-0.5-0.4-1.4,0.1-1.8l3.7-3.7c0.5-0.5,1.1-0.3,1.6,0.1l3.7,3.7c0.5,0.5,0.6,1.1,0.1,1.6
			L68.7,72.1z"/>
		<path fill-rule="evenodd" clip-rule="evenodd" fill="#2B2B2B" d="M86,76.1l-5.9-5.9c-1.2-1.2-2.9-1.4-4.1-0.3l-5.9,5.9
			c-1.2,1.2-1.1,3.1,0,4.3l5.9,5.9c1.2,1.2,2.8,0.9,4-0.3l5.9-5.9C87.1,78.6,87.1,77.2,86,76.1z M78.9,82.3
			c-0.5,0.5-1.2,0.8-1.7,0.3l-3.7-3.7c-0.5-0.5-0.5-1.5,0-2l3.7-3.7c0.5-0.5,1.3-0.2,1.7,0.3l3.7,3.7c0.5,0.5,0.4,0.9,0,1.4
			L78.9,82.3z"/>
		<path fill-rule="evenodd" clip-rule="evenodd" fill="#2B2B2B" d="M74.8,78.3l-7.1-7.1c-0.9-0.9-0.9-2.5,0-3.4l0,0
			c0.9-0.9,2.5-0.9,3.4,0l7.1,7.1c0.9,0.9,0.9,2.5,0,3.4l0,0C77.3,79.2,75.8,79.2,74.8,78.3z"/>
	</g>
	<path fill-rule="evenodd" clip-rule="evenodd" fill="#2B2B2B" d="M73,48.2c-13.7,0-24.8,11.1-24.8,24.8c0,13.7,11.1,24.8,24.8,24.8
		c13.7,0,24.8-11.1,24.8-24.8C97.8,59.3,86.7,48.2,73,48.2z M73,96.1c-12.7,0-23.1-10.3-23.1-23.1c0-12.7,10.3-23.1,23.1-23.1
		S96.1,60.3,96.1,73C96.1,85.7,85.7,96.1,73,96.1z"/>
</g>
</svg>
